<svg width="720" height="300" viewBox="0 0 720 300" xmlns="http://www.w3.org/2000/svg" font-family="'Inter','Segoe UI','Arial',sans-serif">
  <defs>
    <linearGradient id="bg2" x1="0" y1="0" x2="0" y2="1">
      <stop offset="0%" stop-color="#050a0a"/>
      <stop offset="100%" stop-color="#030808"/>
    </linearGradient>
  </defs>
  <rect width="720" height="300" fill="url(#bg2)"/>

  <text x="360" y="28" fill="#134e4a" font-size="11" text-anchor="middle" letter-spacing="3">EPOCH · FUNDING ALERT</text>

  <rect x="60" y="44" width="600" height="192" rx="14" fill="#0a1414" stroke="#134e4a" stroke-width="1.5"/>
  <rect x="60" y="44" width="600" height="5" rx="3" fill="#ef4444"/>

  <rect x="262" y="34" width="196" height="26" rx="13" fill="#450a0a"/>
  <text x="360" y="51" fill="#fca5a5" font-size="12" font-weight="700" text-anchor="middle">EXTREME POSITIVE FUNDING</text>

  <text x="360" y="88" fill="#fca5a5" font-size="22" font-weight="700" text-anchor="middle">SOL-PERP · Drift</text>
  <text x="360" y="112" fill="#475569" font-size="12" text-anchor="middle">longs are paying shorts to hold positions</text>

  <rect x="88" y="126" width="544" height="1" fill="#134e4a"/>

  <text x="200" y="150" fill="#475569" font-size="10" text-anchor="middle">HOURLY RATE</text>
  <text x="200" y="170" fill="#f87171" font-size="22" font-weight="700" text-anchor="middle">+1.82%</text>

  <rect x="320" y="138" width="1" height="44" fill="#134e4a"/>

  <text x="420" y="150" fill="#475569" font-size="10" text-anchor="middle">ANNUALIZED</text>
  <text x="420" y="170" fill="#f87171" font-size="22" font-weight="700" text-anchor="middle">+142%</text>

  <rect x="524" y="138" width="1" height="44" fill="#134e4a"/>

  <text x="590" y="150" fill="#475569" font-size="10" text-anchor="middle">CONFIDENCE</text>
  <text x="590" y="170" fill="#2dd4bf" font-size="22" font-weight="700" text-anchor="middle">0.88</text>

  <rect x="88" y="192" width="544" height="1" fill="#134e4a"/>
  <text x="360" y="214" fill="#6b7280" font-size="12" text-anchor="middle">Funding at 142% annualized — longs severely overextended on SOL perps</text>
  <text x="360" y="232" fill="#2dd4bf" font-size="13" font-weight="600" text-anchor="middle">→ short SOL-PERP to earn funding while market is overheated</text>

  <text x="360" y="278" fill="#0a2020" font-size="10" text-anchor="middle">epoch · drift protocol · claude agent sdk · scanning every 5 minutes</text>
</svg>
